<svg xmlns="http://www.w3.org/2000/svg">
  <defs>
    <symbol id="icon-lens" viewBox="-5.0 -10.0 110.0 135.0">
      <path d="m89.109 75.703c0.49219-0.75 0.96875-1.5195 1.4219-2.3086l0.003906 0.003907c7.0078-12.148 7.9922-26.227 3.6953-38.676h-28.789l7.9883 13.84 0.003906-0.003906zm-41.828 21.023 23.664-40.988 14.398 24.941c-9.5586 11.039-23.707 16.867-38.062 16.047zm-39.102-25.715c3.9609 7.8984 10.199 14.77 18.422 19.52v0.003906c4.6328 2.6719 9.5312 4.4609 14.504 5.4219l14.395-24.934h-17.629l-0.007813-0.011719zm2.7109-46.715c-8.2109 12.512-9.7344 27.598-5.125 40.977h28.785zm41.824-21.023-14.84 25.703h-0.007812l-8.8203 15.277-14.398-24.934c9.5625-11.039 23.715-16.867 38.066-16.047zm20.68 6.1953c-4.6328-2.6719-9.5312-4.4648-14.504-5.4258l-14.395 24.934h17.625l0.007812 0.011719h29.688c-3.957-7.9023-10.195-14.77-18.422-19.52zm-14.566 25.266 8.8125 15.266-8.8125 15.262h-17.648l-8.8125-15.266 8.8125-15.266z" fill-rule="evenodd"/>
    </symbol>
    <symbol id="icon-album" viewBox="-5.0 -10.0 110.0 135.0">
      <path d="m90.625 21.875h-1.5625v46.875c0 2.5859-2.1016 4.6875-4.6875 4.6875h-28.125c-0.84766 0-1.5625 0.71484-1.5625 1.5625 0 2.5859-2.1016 4.6875-4.6875 4.6875s-4.6875-2.1016-4.6875-4.6875c0-0.84766-0.71484-1.5625-1.5625-1.5625h-28.125c-2.5859 0-4.6875-2.1016-4.6875-4.6875v-46.875h-1.5625c-1.7188 0-3.125 1.4062-3.125 3.125v50c0 1.7188 1.4062 3.125 3.125 3.125h32.969c0.71875 3.5625 3.8906 6.25 7.6562 6.25s6.9375-2.6875 7.6562-6.25h32.969c1.7188 0 3.125-1.4062 3.125-3.125v-50c0-1.7188-1.4062-3.125-3.125-3.125z"/>
      <path d="m60.938 48.438h15.625v10.938h-15.625z"/>
      <path d="m60.938 26.562h15.625v10.938h-15.625z"/>
      <path d="m23.438 26.562h15.625v10.938h-15.625z"/>
      <path d="m15.625 70.312h28.125c2.5781 0 4.6875 2.1094 4.6875 4.6875 0 0.86328 0.69922 1.5625 1.5625 1.5625s1.5625-0.69922 1.5625-1.5625c0-2.5781 2.1094-4.6875 4.6875-4.6875h28.125c0.85938 0 1.5625-0.70312 1.5625-1.5625v-51.562c0-0.85938-0.70312-1.5625-1.5625-1.5625h-28.125c-1.75 0-3.375 0.57812-4.6875 1.5938v51.531c0 0.86328-0.69922 1.5625-1.5625 1.5625s-1.5625-0.69922-1.5625-1.5625v-51.531c-1.3125-1.0156-2.9375-1.5938-4.6875-1.5938h-28.125c-0.85938 0-1.5625 0.70312-1.5625 1.5625v51.562c0 0.85938 0.70312 1.5625 1.5625 1.5625zm42.188-45.312c0-0.86328 0.69922-1.5625 1.5625-1.5625h18.75c0.86328 0 1.5625 0.69922 1.5625 1.5625v14.062c0 0.86328-0.69922 1.5625-1.5625 1.5625h-18.75c-0.86328 0-1.5625-0.69922-1.5625-1.5625zm0 21.875c0-0.86328 0.69922-1.5625 1.5625-1.5625h18.75c0.86328 0 1.5625 0.69922 1.5625 1.5625v14.062c0 0.86328-0.69922 1.5625-1.5625 1.5625h-18.75c-0.86328 0-1.5625-0.69922-1.5625-1.5625zm-37.5-21.875c0-0.86328 0.69922-1.5625 1.5625-1.5625h18.75c0.86328 0 1.5625 0.69922 1.5625 1.5625v14.062c0 0.86328-0.69922 1.5625-1.5625 1.5625h-18.75c-0.86328 0-1.5625-0.69922-1.5625-1.5625zm0 21.875c0-0.86328 0.69922-1.5625 1.5625-1.5625h18.75c0.86328 0 1.5625 0.69922 1.5625 1.5625v14.062c0 0.86328-0.69922 1.5625-1.5625 1.5625h-18.75c-0.86328 0-1.5625-0.69922-1.5625-1.5625z"/>
      <path d="m23.438 48.438h15.625v10.938h-15.625z"/>
    </symbol>
  </defs>
</svg>
