<svg xmlns="http://www.w3.org/2000/svg" version="1.1" viewBox="-5.0 -10.0 110.0 135.0">
 <path d="m90.625 21.875h-1.5625v46.875c0 2.5859-2.1016 4.6875-4.6875 4.6875h-28.125c-0.84766 0-1.5625 0.71484-1.5625 1.5625 0 2.5859-2.1016 4.6875-4.6875 4.6875s-4.6875-2.1016-4.6875-4.6875c0-0.84766-0.71484-1.5625-1.5625-1.5625h-28.125c-2.5859 0-4.6875-2.1016-4.6875-4.6875v-46.875h-1.5625c-1.7188 0-3.125 1.4062-3.125 3.125v50c0 1.7188 1.4062 3.125 3.125 3.125h32.969c0.71875 3.5625 3.8906 6.25 7.6562 6.25s6.9375-2.6875 7.6562-6.25h32.969c1.7188 0 3.125-1.4062 3.125-3.125v-50c0-1.7188-1.4062-3.125-3.125-3.125z"/>
 <path d="m60.938 48.438h15.625v10.938h-15.625z"/>
 <path d="m60.938 26.562h15.625v10.938h-15.625z"/>
 <path d="m23.438 26.562h15.625v10.938h-15.625z"/>
 <path d="m15.625 70.312h28.125c2.5781 0 4.6875 2.1094 4.6875 4.6875 0 0.86328 0.69922 1.5625 1.5625 1.5625s1.5625-0.69922 1.5625-1.5625c0-2.5781 2.1094-4.6875 4.6875-4.6875h28.125c0.85938 0 1.5625-0.70312 1.5625-1.5625v-51.562c0-0.85938-0.70312-1.5625-1.5625-1.5625h-28.125c-1.75 0-3.375 0.57812-4.6875 1.5938v51.531c0 0.86328-0.69922 1.5625-1.5625 1.5625s-1.5625-0.69922-1.5625-1.5625v-51.531c-1.3125-1.0156-2.9375-1.5938-4.6875-1.5938h-28.125c-0.85938 0-1.5625 0.70312-1.5625 1.5625v51.562c0 0.85938 0.70312 1.5625 1.5625 1.5625zm42.188-45.312c0-0.86328 0.69922-1.5625 1.5625-1.5625h18.75c0.86328 0 1.5625 0.69922 1.5625 1.5625v14.062c0 0.86328-0.69922 1.5625-1.5625 1.5625h-18.75c-0.86328 0-1.5625-0.69922-1.5625-1.5625zm0 21.875c0-0.86328 0.69922-1.5625 1.5625-1.5625h18.75c0.86328 0 1.5625 0.69922 1.5625 1.5625v14.062c0 0.86328-0.69922 1.5625-1.5625 1.5625h-18.75c-0.86328 0-1.5625-0.69922-1.5625-1.5625zm-37.5-21.875c0-0.86328 0.69922-1.5625 1.5625-1.5625h18.75c0.86328 0 1.5625 0.69922 1.5625 1.5625v14.062c0 0.86328-0.69922 1.5625-1.5625 1.5625h-18.75c-0.86328 0-1.5625-0.69922-1.5625-1.5625zm0 21.875c0-0.86328 0.69922-1.5625 1.5625-1.5625h18.75c0.86328 0 1.5625 0.69922 1.5625 1.5625v14.062c0 0.86328-0.69922 1.5625-1.5625 1.5625h-18.75c-0.86328 0-1.5625-0.69922-1.5625-1.5625z"/>
 <path d="m23.438 48.438h15.625v10.938h-15.625z"/>
<text x="0.0" y="117.5" font-size="5.0" font-weight="bold" font-family="Arbeit Regular, Helvetica, Arial-Unicode, Arial, Sans-serif" fill="#000000">Created by Nur Achmadi Yusuf</text><text x="0.0" y="122.5" font-size="5.0" font-weight="bold" font-family="Arbeit Regular, Helvetica, Arial-Unicode, Arial, Sans-serif" fill="#000000">from Noun Project</text></svg>