<svg xmlns="http://www.w3.org/2000/svg" version="1.1" viewBox="-5.0 -10.0 110.0 135.0">
 <path d="m89.109 75.703c0.49219-0.75 0.96875-1.5195 1.4219-2.3086l0.003906 0.003907c7.0078-12.148 7.9922-26.227 3.6953-38.676h-28.789l7.9883 13.84 0.003906-0.003906zm-41.828 21.023 23.664-40.988 14.398 24.941c-9.5586 11.039-23.707 16.867-38.062 16.047zm-39.102-25.715c3.9609 7.8984 10.199 14.77 18.422 19.52v0.003906c4.6328 2.6719 9.5312 4.4609 14.504 5.4219l14.395-24.934h-17.629l-0.007813-0.011719zm2.7109-46.715c-8.2109 12.512-9.7344 27.598-5.125 40.977h28.785zm41.824-21.023-14.84 25.703h-0.007812l-8.8203 15.277-14.398-24.934c9.5625-11.039 23.715-16.867 38.066-16.047zm20.68 6.1953c-4.6328-2.6719-9.5312-4.4648-14.504-5.4258l-14.395 24.934h17.625l0.007812 0.011719h29.688c-3.957-7.9023-10.195-14.77-18.422-19.52zm-14.566 25.266 8.8125 15.266-8.8125 15.262h-17.648l-8.8125-15.266 8.8125-15.266z" fill-rule="evenodd"/>
<text x="0.0" y="117.5" font-size="5.0" font-weight="bold" font-family="Arbeit Regular, Helvetica, Arial-Unicode, Arial, Sans-serif" fill="#000000">Created by ICONIC</text><text x="0.0" y="122.5" font-size="5.0" font-weight="bold" font-family="Arbeit Regular, Helvetica, Arial-Unicode, Arial, Sans-serif" fill="#000000">from Noun Project</text></svg>